# xmcd
#
# Track frame offsets:
#	150
#	17200
#	34843
#	51845
#	67627
#	82068
#	98651
#	113276
#
# Disc length: 1726 seconds
#
# Revision: 0
# Processed by: cddbd v1.5.2PL0 Copyright (c) Steve Scherf et al.
# Submitted via: EasyCDDAExtractor 12.0.4.1
#
DISCID=5606bc08
DTITLE=Girly Berry - Top Berry Secret
DYEAR=2009
DGENRE=Pop
TTITLE0=สวย เริ่ด เชิด...ยอม
TTITLE1=ชอบเป็นของเธอ
TTITLE2=ไม่มีผู้ชาย ก็ไม่มีน้ำตา
TTITLE3=ก่อนใครสักคน จะทนไม่ไหว
TTITLE4=ร้อนก็บอกว่าร้อน
TTITLE5=ไม่รักแล้วจะหลอก
TTITLE6=เสียฟอร์มไม่เสียใจ
TTITLE7=อย่ารังแก
EXTD=
EXTT0=
EXTT1=
EXTT2=
EXTT3=
EXTT4=
EXTT5=
EXTT6=
EXTT7=
PLAYORDER=
